<?xml version="1.0" standalone="no"?>
<!DOCTYPE svg PUBLIC "-//W3C//DTD SVG 20010904//EN"
 "http://www.w3.org/TR/2001/REC-SVG-20010904/DTD/svg10.dtd">
<svg version="1.0" xmlns="http://www.w3.org/2000/svg"
 width="1296.000000pt" height="490.000000pt" viewBox="0 0 1296.000000 490.000000"
 preserveAspectRatio="xMidYMid meet">

<g transform="translate(0.000000,490.000000) scale(0.100000,-0.100000)"
fill="#800581" stroke="none">
<path d="M1549 3592 c-312 -181 -579 -336 -593 -345 l-26 -18 2 -687 3 -687
590 -342 c325 -188 595 -342 602 -342 7 -1 39 15 72 34 32 19 64 35 71 35 6 0
41 -17 78 -37 l68 -37 73 42 73 42 70 -40 c38 -22 74 -40 79 -40 4 0 167 92
361 204 194 111 373 214 398 228 25 14 133 77 240 140 l195 114 3 686 c2 541
-1 688 -10 696 -40 31 -1174 682 -1189 682 -8 -1 -43 -18 -79 -40 l-65 -38
-71 39 c-39 21 -76 39 -82 39 -6 0 -38 -16 -71 -35 -32 -19 -64 -35 -70 -35
-5 0 -37 16 -70 35 -32 19 -65 35 -73 35 -7 -1 -268 -148 -579 -328z m628 253
c23 -14 43 -27 43 -29 0 -2 -225 -133 -500 -292 l-500 -288 0 -690 0 -691 500
-289 c275 -158 500 -289 500 -291 0 -2 -21 -15 -46 -29 l-47 -26 -251 144
c-138 80 -395 228 -571 329 l-320 185 0 667 0 667 569 329 c314 181 572 329
575 329 2 0 24 -11 48 -25z m813 -303 l565 -327 0 -669 0 -669 -570 -329
c-313 -180 -572 -327 -575 -326 -34 15 -1137 655 -1142 662 -4 6 -8 304 -8
662 0 590 2 653 16 665 26 21 1128 658 1139 658 6 0 264 -147 575 -327z m296
-1 l569 -329 0 -667 0 -668 -445 -256 c-245 -141 -502 -289 -572 -330 l-127
-73 -51 28 c-27 15 -48 29 -45 32 3 3 217 128 477 278 260 150 483 280 496
289 l22 16 0 685 0 684 -43 28 c-24 15 -246 144 -495 287 -248 143 -452 263
-452 267 0 7 80 58 91 58 3 0 262 -148 575 -329z"/>
<path d="M1960 3493 l-445 -258 0 -689 0 -690 445 -257 c245 -142 451 -258
458 -259 8 0 214 116 458 257 l444 257 0 692 0 692 -437 253 c-240 139 -446
254 -457 256 -14 3 -178 -87 -466 -254z m894 -39 l426 -246 0 -663 0 -663
-419 -241 c-231 -133 -425 -243 -433 -246 -7 -3 -204 105 -438 239 l-425 245
-3 664 -2 665 422 245 c233 135 428 246 435 246 7 1 203 -110 437 -245z"/>
<path d="M2065 3312 l-340 -197 0 -569 0 -570 344 -198 c189 -109 350 -198
356 -196 6 2 163 90 348 197 l337 195 0 572 0 572 -340 196 c-187 108 -345
196 -352 196 -7 -1 -166 -90 -353 -198z m682 -38 l323 -186 0 -542 0 -542
-325 -188 c-178 -103 -328 -186 -332 -183 -4 2 -151 86 -325 187 l-318 183 0
543 0 542 323 186 c177 102 324 186 326 186 2 0 150 -84 328 -186z"/>
<path d="M4703 3660 c-39 -13 -80 -60 -88 -103 -3 -18 -5 -414 -3 -882 3 -824
4 -851 23 -879 49 -74 174 -72 218 3 15 26 17 66 17 355 l0 326 179 0 179 0
221 -354 c186 -299 226 -356 255 -370 88 -41 186 11 186 99 0 43 -20 80 -209
383 -99 161 -181 296 -181 301 0 5 26 24 57 41 111 63 198 178 239 315 27 89
25 258 -3 350 -63 199 -216 343 -428 401 -47 13 -121 17 -345 20 -169 2 -298
-1 -317 -6z m654 -274 c130 -60 205 -179 205 -327 1 -121 -51 -215 -154 -277
-82 -49 -168 -63 -366 -60 l-167 3 -3 348 -2 348 212 -3 c210 -3 214 -3 275
-32z"/>
<path d="M6221 3657 c-19 -7 -44 -25 -55 -40 -21 -28 -21 -31 -21 -919 l0
-890 37 -34 c32 -29 45 -34 87 -34 34 0 56 6 76 22 53 42 55 55 55 466 0 444
0 443 89 533 117 117 313 143 474 62 57 -28 122 -93 144 -142 40 -93 43 -126
43 -489 0 -383 1 -387 56 -431 40 -31 113 -29 153 5 51 42 53 65 49 469 -5
411 -8 435 -76 570 -41 82 -141 186 -219 228 -117 62 -311 85 -451 52 -74 -18
-168 -62 -223 -106 l-39 -31 0 306 c0 330 -4 359 -52 389 -34 22 -88 27 -127
14z"/>
<path d="M9453 3659 c-17 -5 -43 -23 -57 -40 l-26 -31 0 -884 0 -884 34 -38
c32 -34 39 -37 89 -37 68 0 106 25 125 80 10 30 12 223 10 899 -3 810 -4 863
-21 887 -28 42 -99 64 -154 48z"/>
<path d="M10703 3660 c-48 -11 -63 -27 -99 -105 -106 -231 -694 -1657 -694
-1684 0 -89 90 -153 172 -122 47 18 74 61 143 235 l70 176 441 0 440 0 49
-122 c108 -275 121 -293 213 -293 49 0 56 3 88 37 61 67 73 31 -322 974 -196
467 -363 857 -372 867 -32 35 -79 49 -129 37z m210 -847 c92 -230 167 -421
167 -425 0 -5 -156 -8 -346 -8 -325 0 -346 1 -340 18 39 102 342 832 346 832
3 0 81 -188 173 -417z"/>
<path d="M8281 3089 c-319 -62 -531 -327 -531 -665 0 -169 43 -310 130 -426
131 -173 323 -262 565 -262 143 0 210 16 341 79 113 55 159 101 150 153 -11
69 -82 112 -153 93 -21 -6 -54 -22 -75 -36 -20 -13 -70 -36 -111 -50 -196 -65
-421 2 -534 160 -36 50 -73 136 -73 169 l0 26 485 0 485 0 32 29 33 30 -2 93
c-6 313 -183 544 -461 603 -79 16 -209 18 -281 4z m291 -236 c102 -46 196
-170 214 -281 l7 -42 -403 0 -402 0 6 32 c26 133 150 266 284 304 72 21 235
13 294 -13z"/>
</g>
</svg>
